<?xml version="1.0" standalone="no"?>
<!DOCTYPE svg PUBLIC "-//W3C//DTD SVG 20010904//EN"
 "http://www.w3.org/TR/2001/REC-SVG-20010904/DTD/svg10.dtd">
<svg version="1.0" xmlns="http://www.w3.org/2000/svg"
 width="260.000000pt" height="260.000000pt" viewBox="0 0 260.000000 260.000000"
 preserveAspectRatio="xMidYMid meet">
<metadata>
Created by potrace 1.11, written by Peter Selinger 2001-2013
</metadata>
<g transform="translate(0.000000,260.000000) scale(0.100000,-0.100000)"
fill="#000000" stroke="none">
<path d="M0 1300 l0 -1300 1300 0 1300 0 0 1300 0 1300 -1300 0 -1300 0 0
-1300z m1476 901 c370 -76 649 -355 725 -725 87 -420 -150 -861 -549 -1024
-540 -220 -1135 99 -1253 672 -60 293 36 609 252 825 217 216 532 312 825 252z"/>
<path d="M1124 1751 c-83 -14 -194 -104 -209 -170 -5 -22 -12 -31 -26 -31 -26
0 -69 -44 -69 -70 0 -24 66 -96 96 -104 31 -9 74 28 74 64 0 18 7 33 18 39 14
7 38 -10 124 -88 59 -53 136 -132 172 -176 73 -91 342 -359 369 -369 23 -7
107 68 107 97 0 26 -262 292 -382 388 -80 64 -258 255 -258 276 0 15 73 52
118 59 39 6 42 9 42 39 0 31 -2 34 -42 40 -83 12 -93 13 -134 6z"/>
</g>
</svg>
