<?xml version="1.0" encoding="UTF-8" standalone="no"?>
<svg width="260px" height="260px" viewBox="0 0 260 260" version="1.1" xmlns="http://www.w3.org/2000/svg" xmlns:xlink="http://www.w3.org/1999/xlink">
    <!-- Generator: Sketch 39.1 (31720) - http://www.bohemiancoding.com/sketch -->
    <title>Quote_Icon</title>
    <desc>Created with Sketch.</desc>
    <defs></defs>
    <g id="Icons" stroke="none" stroke-width="1" fill="none" fill-rule="evenodd">
        <g id="Quote_Icon">
            <rect id="Rectangle" fill="#27282B" x="0" y="0" width="260" height="260"></rect>
            <path d="M146.683438,109.378369 C142.104887,124.088723 131.16757,123.52127 131.16757,123.52127 C140.53728,104.185951 135.898839,92.3413083 117.58763,73 C119.763116,106.723767 105.948109,123.52127 105.948109,123.52127 C98.1879297,123.52127 96.2520021,113.420909 96.2520021,113.420909 C87.5425742,137.990569 93.8654063,163.775986 118.171553,169.010326 C118.849801,169.175022 119.552005,169.291807 120.24822,169.41458 C122.576424,169.800867 125.096274,170 127.734406,170 C131.109178,170 134.156055,169.613713 136.870546,168.929476 C137.665579,168.683929 138.420187,168.46084 139.156827,168.239249 C160.492455,161.268113 162.200803,137.381193 162.200803,125.544037 C157.896246,133.545272 150.987994,133.62762 150.719989,133.62762 C156.035181,119.239172 146.683438,109.378369 146.683438,109.378369 Z" id="Page-1" fill="#767B82" opacity="0.133104011"></path>
            <path d="M191.881693,116.212412 C191.881693,105.84044 190.286965,96.2512577 187.09751,87.444866 C183.908055,78.6384742 179.655449,71.006268 173.985307,64.5482474 C168.315164,58.0902268 161.404679,53.1977869 153.431041,49.4795326 C145.457404,45.7612784 136.774999,44 127.029442,44 C117.283886,44 108.424288,45.9569759 100.450651,49.4795326 C92.4770138,53.0020893 85.5665281,58.0902268 79.896386,64.5482474 C74.2262439,71.006268 69.7964454,78.6384742 66.6069905,87.444866 C63.4175355,96.2512577 62,105.84044 62,116.212412 C62,126.584385 63.4175355,136.369265 66.6069905,145.175656 C69.7964454,153.982048 74.2262439,161.614254 79.896386,168.072275 C85.5665281,174.530296 92.4770138,179.618433 100.450651,183.14099 C108.424288,186.663546 117.283886,188.620522 127.029442,188.620522 C130.396089,188.620522 133.762736,188.229127 136.952191,187.837732 C140.141646,187.446337 143.153909,186.859244 146.166172,185.880756 L164.948518,208.777375 C166.897629,211.125746 168.84674,212.691326 171.150235,213.474117 C173.453731,214.256907 176.11161,214.844 178.946681,214.844 L198.437794,214.844 L166.011669,175.704481 C170.087084,172.57332 173.630923,168.855065 176.820378,164.549718 C180.009833,160.244371 182.844904,155.743326 184.971207,150.655189 C187.09751,145.567052 188.86943,140.283216 190.109773,134.412289 C191.350117,128.541361 191.881693,122.474735 191.881693,116.212412 L191.881693,116.212412 Z M167.429205,116.212412 C167.429205,124.040316 166.366053,130.889732 164.594134,137.152055 C162.822214,143.414378 160.164335,148.502515 156.620496,152.807863 C153.076658,157.11321 148.824051,160.440069 143.862677,162.78844 C138.901302,165.136811 133.23116,166.115299 127.029442,166.115299 C120.827724,166.115299 115.157582,165.136811 110.196208,162.78844 C105.234834,160.440069 100.805035,157.11321 97.2611962,152.807863 C93.7173574,148.502515 91.0594783,143.414378 89.1103669,137.152055 C87.1612556,130.889732 86.2752959,124.040316 86.2752959,116.212412 C86.2752959,108.384509 87.1612556,101.73079 89.1103669,95.4684674 C91.0594783,89.2061443 93.7173574,84.1180069 97.2611962,79.8126598 C100.805035,75.5073127 105.234834,72.1804536 110.196208,69.8320825 C115.157582,67.4837113 120.827724,66.5052234 127.029442,66.5052234 C133.23116,66.5052234 138.901302,67.4837113 143.862677,69.8320825 C148.824051,72.1804536 153.076658,75.5073127 156.620496,79.8126598 C160.164335,84.1180069 162.822214,89.2061443 164.594134,95.4684674 C166.366053,101.73079 167.429205,108.384509 167.429205,116.212412 L167.429205,116.212412 Z" id="Q" fill="#FFFFFF"></path>
            <circle id="Oval" fill="#D8D8D8" cx="188" cy="180" r="7"></circle>
        </g>
    </g>
</svg>